<svg width="204" height="210" viewBox="0 0 204 210" fill="none" xmlns="http://www.w3.org/2000/svg">
<g clip-path="url(#clip0_359_2496)">
<path d="M102.796 193.381C154.263 193.381 195.986 151.389 195.986 99.5886C195.986 47.7882 154.263 5.79578 102.796 5.79578C51.3279 5.79578 9.60498 47.7882 9.60498 99.5886C9.60498 151.389 51.3279 193.381 102.796 193.381Z" fill="#FF3239" stroke="#FF3239" stroke-width="2" stroke-linecap="round" stroke-linejoin="round"/>
<mask id="mask0_359_2496" style="mask-type:alpha" maskUnits="userSpaceOnUse" x="8" y="4" width="189" height="191">
<path d="M102.796 193.381C154.263 193.381 195.986 151.389 195.986 99.5886C195.986 47.7882 154.263 5.79578 102.796 5.79578C51.3279 5.79578 9.60498 47.7882 9.60498 99.5886C9.60498 151.389 51.3279 193.381 102.796 193.381Z" fill="#FF3234" stroke="#FF3234" stroke-width="2" stroke-linecap="round" stroke-linejoin="round"/>
</mask>
<g mask="url(#mask0_359_2496)">
<path d="M182.1 132.516L181.236 134.254C179.064 138.628 176.891 143.002 174.718 147.375" stroke="white" stroke-width="3" stroke-linecap="round" stroke-linejoin="round"/>
<path d="M182.407 131.9L182.1 132.516" stroke="white" stroke-width="3" stroke-linecap="round" stroke-linejoin="round"/>
<path d="M187.365 121.905L186.418 123.825" stroke="white" stroke-width="3" stroke-linecap="round" stroke-linejoin="round"/>
<path d="M147.113 206.502C147.113 201.077 146.152 194.713 148.632 189.751C150.679 185.672 154.816 184.102 158.395 181.649C164.481 177.457 170.596 173.308 176.654 169.089C181.195 165.935 185.011 163.285 187.476 158.085L187.574 157.86L195.763 139.413L200.916 127.792C202.657 123.867 204.482 120.559 202.393 116.312C200.68 112.821 197.239 111.994 193.674 113.018C190.206 114.027 188.799 118.989 187.351 121.919" stroke="white" stroke-width="3" stroke-linecap="round" stroke-linejoin="round"/>
<path d="M119.342 206.502C119.342 195.778 117.837 183.905 122.406 173.967C126.473 165.122 133.896 160.552 141.668 155.491C144.3 153.781 146.933 152.071 149.551 150.333C155.15 146.632 163.869 139.441 170.679 144.109C170.679 144.109 179.718 149.31 170.679 155.477L151.306 169.453" stroke="white" stroke-width="3" stroke-linecap="round" stroke-linejoin="round"/>
<path d="M189.607 117.055C187.616 116.466 185.457 116.368 183.423 116.732C181.571 117.069 180.29 117.461 178.771 118.625C176.919 120.04 174.663 123.601 173.562 125.704C172.379 127.975 171.306 130.301 170.178 132.6C168.548 135.923 166.905 139.245 165.275 142.567" stroke="white" stroke-width="3" stroke-miterlimit="10"/>
<path d="M173.075 126.306C173.075 126.306 168.353 123.559 163.757 126.685C159.885 129.306 153.673 145.16 152.183 148.539" stroke="white" stroke-width="3" stroke-miterlimit="10"/>
<path d="M125.15 42.1859C125.15 42.1859 98.1296 36.2984 84.1044 42.1158C84.1044 42.1158 50.817 43.4755 47.1958 68.9598C47.1958 68.9598 56.6388 85.8372 62.5581 86.8745C68.4774 87.9118 66.82 93.0423 66.82 93.0423L72.6697 104.747L74.9956 130.876L66.82 127.82L62.8924 129.054L63.3938 147.403L66.0122 150.557L93.812 152.66L98.1575 147.403H108.102L113.213 150.894L137.893 150.501L143.771 136.091L147.323 119.087V103.626H141.598L137.044 111.434L133.59 114.63V103.626L139.495 89.5939L160.011 68.5673C160.011 68.5673 152.921 45.7464 125.177 42.1999L125.15 42.1859Z" fill="white"/>
<path d="M72.6699 104.733C72.6699 104.733 72.9903 150.88 84.9403 150.88C86.7927 150.88 92.1966 150.88 93.0462 150.88C97.3081 150.922 98.1577 147.613 98.1577 143.254V116.732" stroke="#FF3239" stroke-width="3" stroke-linecap="round" stroke-linejoin="round"/>
<path d="M73.8397 133.442C73.8397 133.442 68.5889 127.919 68.575 127.919C66.7087 125.956 63.7421 126.391 62.8925 129.04C62.3772 130.638 62.6139 138.376 62.6 140.394C62.5721 143.983 62.4747 148.342 66.0123 150.543C67.224 151.3 70.4553 151.09 72.5584 151.104C76.4999 151.104 80.4415 151.104 84.383 151.104" stroke="#FF3239" stroke-width="3" stroke-linecap="round" stroke-linejoin="round"/>
<path d="M123.297 150.417C122.67 150.725 122.002 150.88 121.305 150.88C119.453 150.88 114.049 150.88 113.199 150.88C108.937 150.922 108.088 147.613 108.088 143.254V116.732" stroke="#FF3239" stroke-width="3" stroke-linecap="round" stroke-linejoin="round"/>
<path d="M133.562 104.733C133.562 104.733 133.451 120.349 131.013 133.413" stroke="#FF3239" stroke-width="3" stroke-linecap="round" stroke-linejoin="round"/>
<path d="M132.991 135.544C132.991 135.544 125.916 127.918 125.902 127.904C124.035 125.942 121.069 126.377 120.219 129.026C119.704 130.624 119.941 138.362 119.927 140.38C119.899 143.969 119.801 148.328 123.339 150.529C124.551 151.286 127.782 151.076 129.885 151.09C131.222 151.09 132.573 151.09 133.91 151.09C134.551 151.09 135.191 151.104 135.832 151.09C138.492 151.006 139.927 148.665 140.916 146.492C143.674 140.38 144.161 132.446 143.506 125.718C142.921 119.676 140.066 111.321 134.161 110.172" stroke="#FF3239" stroke-width="3" stroke-linecap="round" stroke-linejoin="round"/>
<path d="M137.879 110.831C137.879 110.831 139.62 109.85 140.554 106.331C141.487 102.813 146.57 102.673 147.615 106.205C148.966 110.831 148.896 117.209 144.746 125.592" stroke="#FF3239" stroke-width="3" stroke-linecap="round" stroke-linejoin="round"/>
<path d="M98.1436 147.375H108.088" stroke="#FF3239" stroke-width="3" stroke-linecap="round" stroke-linejoin="round"/>
<path d="M103.13 39.4805C103.13 39.4805 89.8564 38.6955 84.0903 42.1158C83.5611 42.4382 81.7505 42.1298 81.1237 42.1859C78.4496 42.3962 75.7894 42.9429 73.2127 43.7138C64.1875 46.4333 56.3462 52.1525 50.2319 59.3016C46.6664 63.4789 45.2458 67.9225 49.2431 72.4502C50.8169 74.3707 52.3907 76.2911 53.9646 78.2115C57.4744 82.4869 65.1346 92.8321 71.2629 85.8933C71.2629 85.8933 78.3799 79.5713 81.639 69.0159" stroke="#FF3239" stroke-width="3" stroke-linecap="round" stroke-linejoin="round"/>
<path d="M66.8062 89.58C66.8062 89.58 68.1154 107.242 87.2382 109.878" stroke="#FF3239" stroke-width="3" stroke-linecap="round" stroke-linejoin="round"/>
<path d="M87.6839 83.8186C89.7915 83.8186 91.5001 82.099 91.5001 79.9778C91.5001 77.8565 89.7915 76.1369 87.6839 76.1369C85.5763 76.1369 83.8677 77.8565 83.8677 79.9778C83.8677 82.099 85.5763 83.8186 87.6839 83.8186Z" fill="#FF3239"/>
<path d="M101.737 89.7621L98.8121 86.8184C97.7118 85.711 98.4918 83.8186 100.052 83.8186H106.208C107.768 83.8186 108.548 85.711 107.447 86.8184L104.523 89.7621C103.756 90.5331 102.503 90.5331 101.737 89.7621Z" fill="#FF3239" stroke="#FF3239" stroke-width="2" stroke-linecap="round" stroke-linejoin="round"/>
<path d="M93.7983 93.5189C93.7983 93.5189 97.0992 99.6587 102.587 95.4954V90.8275" stroke="#FF3239" stroke-width="3" stroke-linecap="round" stroke-linejoin="round"/>
<path d="M103.13 39.4805C103.13 39.4805 116.403 38.6955 122.169 42.1158C122.698 42.4382 124.509 42.1298 125.136 42.1859C127.81 42.3962 130.47 42.9429 133.047 43.7138C142.072 46.4333 149.913 52.1525 156.028 59.3016C159.593 63.4789 161.014 67.9225 157.016 72.4502L152.295 78.2115C148.785 82.4869 141.125 92.8321 134.997 85.8933C134.997 85.8933 127.88 79.5713 124.62 69.0159" stroke="#FF3239" stroke-width="3" stroke-linecap="round" stroke-linejoin="round"/>
<path d="M139.467 89.58C139.467 89.58 138.158 107.242 119.035 109.878" stroke="#FF3239" stroke-width="3" stroke-linecap="round" stroke-linejoin="round"/>
<path d="M118.59 83.8186C120.697 83.8186 122.406 82.099 122.406 79.9778C122.406 77.8565 120.697 76.1369 118.59 76.1369C116.482 76.1369 114.773 77.8565 114.773 79.9778C114.773 82.099 116.482 83.8186 118.59 83.8186Z" fill="#FF3239"/>
<path d="M112.475 93.5189C112.475 93.5189 109.175 99.6587 103.687 95.4954V90.8275" stroke="#FF3239" stroke-width="3" stroke-linecap="round" stroke-linejoin="round"/>
<path d="M41.3877 97.8224V108.224" stroke="white" stroke-width="3" stroke-linecap="round" stroke-linejoin="round"/>
<path d="M46.5551 103.023H36.2207" stroke="white" stroke-width="3" stroke-linecap="round" stroke-linejoin="round"/>
<path d="M30.2873 91.8508C32.2027 91.8508 33.7554 90.2881 33.7554 88.3604C33.7554 86.4327 32.2027 84.87 30.2873 84.87C28.372 84.87 26.8193 86.4327 26.8193 88.3604C26.8193 90.2881 28.372 91.8508 30.2873 91.8508Z" stroke="white" stroke-width="2" stroke-linecap="round" stroke-linejoin="round"/>
<path d="M22.3207 101.579C23.0514 101.579 23.6438 100.983 23.6438 100.247C23.6438 99.512 23.0514 98.9158 22.3207 98.9158C21.5899 98.9158 20.9976 99.512 20.9976 100.247C20.9976 100.983 21.5899 101.579 22.3207 101.579Z" stroke="white" stroke-width="3" stroke-linecap="round" stroke-linejoin="round"/>
<path d="M164.609 107.06L169.605 102.696L165.268 97.6673L160.272 102.032L164.609 107.06Z" stroke="white" stroke-width="2" stroke-linecap="round" stroke-linejoin="round"/>
<path d="M183.465 96.5468L179.12 100.934" stroke="white" stroke-width="3" stroke-linecap="round" stroke-linejoin="round"/>
<path d="M183.465 100.934L179.12 96.5468" stroke="white" stroke-width="3" stroke-linecap="round" stroke-linejoin="round"/>
<path d="M169.05 87.5754C169.419 87.5754 169.718 87.2741 169.718 86.9025C169.718 86.5309 169.419 86.2297 169.05 86.2297C168.681 86.2297 168.381 86.5309 168.381 86.9025C168.381 87.2741 168.681 87.5754 169.05 87.5754Z" stroke="white" stroke-width="3" stroke-linecap="round" stroke-linejoin="round"/>
<path d="M59.7308 206.502C59.7308 201.077 60.6918 194.713 58.2127 189.751C56.1653 185.672 52.0287 184.102 48.4493 181.649C42.3629 177.457 36.2486 173.308 30.19 169.089C25.6496 165.935 21.8333 163.285 19.3681 158.085L19.2706 157.86C16.5408 151.707 13.811 145.553 11.0811 139.413C9.36799 135.544 7.64095 131.661 5.92783 127.792C4.21472 123.923 2.36233 120.559 4.45149 116.312C6.16461 112.821 9.60477 111.994 13.1703 113.018C16.6383 114.027 18.045 118.989 19.4935 121.919C21.5409 126.04 23.5882 130.161 25.6356 134.269C27.8084 138.642 29.9811 143.016 32.1538 147.389" stroke="white" stroke-width="3" stroke-linecap="round" stroke-linejoin="round"/>
<path d="M87.5026 206.502C87.5026 195.778 89.0068 183.905 84.4385 173.967C80.3716 165.122 72.9481 160.552 65.1764 155.491C62.544 153.781 59.9117 152.071 57.2933 150.333C51.6943 146.632 42.9755 139.441 36.1648 144.109C36.1648 144.109 27.1257 149.31 36.1648 155.477L55.5384 169.453" stroke="white" stroke-width="3" stroke-linecap="round" stroke-linejoin="round"/>
<path d="M17.251 117.055C19.2426 116.466 21.4015 116.368 23.4349 116.732C25.2873 117.069 26.5687 117.461 28.0868 118.625C29.9392 120.04 32.1955 123.601 33.2958 125.704C34.4796 127.975 35.5521 130.301 36.6802 132.6C38.3098 135.923 39.9532 139.245 41.5828 142.567" stroke="white" stroke-width="3" stroke-miterlimit="10"/>
<path d="M33.7695 126.306C33.7695 126.306 38.491 123.559 43.0872 126.685C46.9591 129.306 53.1709 145.16 54.6612 148.539" stroke="white" stroke-width="3" stroke-miterlimit="10"/>
</g>
<path d="M26.9447 58.2082C27.9615 58.9231 28.9364 59.7081 29.8696 60.5071C31.4573 61.8107 31.9866 63.9695 30.552 66.8151C29.0896 69.7588 27.0283 70.6419 25.0506 70.1093C20.0505 68.8336 14.8554 66.717 10.5936 63.7732C8.90829 62.6798 8.25369 60.0725 10.1618 56.2457C12.042 52.531 14.4794 51.6058 16.3318 52.3488C17.4878 52.7693 18.6438 53.2459 19.7441 53.8206C20.6355 51.6619 21.9865 49.5031 23.5324 47.835C22.5993 47.008 21.694 46.1809 20.8444 45.2838C19.4377 43.84 19.2427 41.2607 21.6801 38.1768C24.1453 35.0929 26.6523 34.7565 28.3375 35.8499C32.6551 38.6814 36.6942 42.6204 39.9811 46.6295C41.2625 48.2415 41.4018 50.4143 39.5076 52.7833C37.6413 55.1523 35.5103 55.4887 33.6858 54.5495C32.5994 54.0028 31.5409 53.3861 30.4685 52.7693C29.5632 54.6477 28.3097 56.5541 26.9726 58.2082H26.9447Z" fill="white" stroke="#FF3239" stroke-width="2" stroke-miterlimit="10"/>
<path d="M48.5329 43.2092C46.5273 45.0034 44.2153 45.4941 42.5997 44.1624C40.6359 42.3821 38.6303 40.4897 36.6943 38.5413C32.1678 34.1677 30.4965 27.7756 39.8977 20.4584C49.5636 13.5196 54.9815 17.052 57.8924 22.6451C59.2016 25.0702 60.4412 27.5373 61.5415 29.9484C62.3911 31.8548 61.3047 33.9294 59.0484 35.3452C55.7614 37.4339 53.4773 36.0741 52.3631 34.2518C51.2628 35.4153 50.9424 35.6536 49.48 36.4106C50.9006 38.0366 51.5831 40.5458 48.5469 43.2092H48.5329ZM44.0621 29.9344C43.31 30.4951 43.9089 31.238 44.466 30.8455C46.0538 29.6961 47.5162 28.9111 49.4243 28.3924C49.9953 28.2522 50.0511 27.2009 49.299 27.3691C47.5301 27.6074 45.6777 28.7148 44.0621 29.9203V29.9344Z" fill="white" stroke="#FF3239" stroke-width="2" stroke-miterlimit="10"/>
<path d="M71.1792 16.9399C71.9313 19.1968 72.7531 22.2526 73.2266 24.5235C73.6584 26.5281 72.8506 28.4625 70.26 29.5419C67.6137 30.6633 65.6778 29.8643 64.5496 28.1541C61.6526 23.8507 59.0482 18.8463 57.5718 13.87C56.9451 11.9636 57.8643 9.69273 61.3045 8.23489C63.2404 7.42186 64.8282 7.3798 65.9981 7.81435C70.7196 9.44041 73.8116 12.8748 77.6278 15.412C78.0038 15.7905 78.7142 15.3279 78.2128 14.9214C77.1264 13.9962 76.3186 13.4074 75.2322 12.6505C74.8562 10.8983 74.4801 8.99184 74.2851 7.534C74.1319 5.51544 75.3854 3.46885 78.9649 2.66984C82.5443 1.89886 84.5499 3.23055 85.2602 5.12294C86.8758 10.0292 87.6697 15.6222 87.8368 20.7948C87.809 22.8554 86.7365 24.6076 83.9789 25.2104C82.0707 25.6309 80.7337 25.1543 79.6612 24.2852C77.2796 22.3648 74.313 18.8183 71.1792 16.9119V16.9399Z" fill="white" stroke="#FF3239" stroke-width="2" stroke-miterlimit="10"/>
<path d="M91.11 19.2108C90.1768 14.5849 89.7311 10.4076 89.4944 5.64158C89.369 2.76794 92.4889 0.763399 95.7619 0.38492C97.9625 0.1326 100.567 -0.0356131 103.144 0.00644019C113.116 0.1326 119.62 4.84257 117.991 12.7626C116.403 20.7387 110.205 23.6264 102.823 23.5423C100.804 23.5002 98.7842 23.4441 97.0293 23.4021C94.5084 23.304 91.7367 21.9723 91.1239 19.1967L91.11 19.2108ZM104.049 13.2672C105.107 12.272 105.483 10.8141 105.581 9.48244C105.609 8.83763 104.216 8.80959 104.202 9.24414C104.049 10.5618 103.659 11.6552 102.726 12.9448C102.419 13.3373 103.547 13.7719 104.049 13.2672Z" fill="white" stroke="#FF3239" stroke-width="2" stroke-miterlimit="10"/>
<path d="M129.996 20.4023C129.467 21.6218 128.882 22.8554 128.325 24.0609C127.419 25.9112 125.581 26.9345 122.893 26.1916C120.135 25.4487 119.119 23.6404 119.3 21.5938C119.704 16.4352 120.776 11.0524 122.642 6.24433C123.645 3.7772 126.458 3.51087 129.773 4.14167C131.779 4.5622 133.854 5.10889 135.804 5.78174C143.631 8.34699 150.902 13.3653 147.42 19.4631C143.812 25.7991 137.127 22.8694 129.996 20.4163V20.4023ZM132.378 13.4775C133.784 14.5849 135.317 15.3699 137.141 15.9586C138.019 16.225 138.227 15.3278 137.615 15.1036C135.748 14.4447 134.509 13.7578 133.032 12.6925C132.475 12.3 131.681 12.8887 132.378 13.4635V13.4775Z" fill="white" stroke="#FF3239" stroke-width="2" stroke-miterlimit="10"/>
<path d="M144.133 30.6633C144.983 28.5045 146.125 26.3458 147.476 24.0048C148.827 21.6639 150.108 19.6032 151.626 17.851C153.855 15.1176 160.303 17.9071 165.401 21.9863C170.833 26.1916 175.359 32.1071 172.198 35.0648C170.916 36.2844 169.969 35.7938 167.936 33.0182C167.267 32.1071 166.376 31.0978 165.582 30.3969C163.284 28.3503 161.473 27.299 159.774 26.5701C158.938 26.2056 158.715 27.0186 159.621 27.3971C163.047 28.9251 167.239 32.6117 168.214 34.8966C169.05 36.8451 168.841 38.331 167.379 39.7327C165.916 41.1345 164.468 41.3168 162.671 40.5878C160.554 39.7327 156.975 36.3685 154.83 33.6631C154.259 32.9482 153.604 33.3967 154.105 34.0556C155.122 35.4153 156.39 36.761 158.423 38.5833C159.133 39.2141 160.066 39.929 160.916 40.4897C163.465 42.2139 163.813 43.2091 162.573 44.3866C159.426 47.3304 155.011 43.7699 150.874 40.5177C147.002 37.3497 142.907 33.8453 144.147 30.6492L144.133 30.6633Z" fill="white" stroke="#FF3239" stroke-width="2" stroke-miterlimit="10"/>
<path d="M174.732 44.6951C172.211 41.471 171.71 38.331 173.618 36.5227C175.596 34.6583 178.743 35.6676 181.668 39.13C184.008 41.8915 185.847 44.4568 187.532 47.1061C189.189 49.7274 190.707 52.517 192.267 55.8672C194.259 60.1987 193.966 63.8994 191.571 64.8946C189.161 65.9039 186.362 63.8153 184.412 59.9884C184.189 59.5399 183.952 59.1053 183.73 58.6567C184.245 58.068 184.76 57.269 185.136 56.6242C185.401 56.1055 184.635 55.1103 184.454 55.4887C182.323 59.0633 178.117 61.8528 175.331 63.0583C173.2 63.8433 170.456 63.1705 168.256 59.652C166.069 56.2457 166.584 53.4141 168.214 51.8161C170.442 49.7134 173.089 47.9332 176.445 46.9659C175.888 46.195 175.317 45.438 174.732 44.6951Z" fill="white" stroke="#FF3239" stroke-width="2" stroke-miterlimit="10"/>
</g>
<defs>
<clipPath id="clip0_359_2496">
<rect width="204" height="210" fill="white"/>
</clipPath>
</defs>
</svg>
