<svg width="19" height="19" viewBox="0 0 19 19" fill="none" xmlns="http://www.w3.org/2000/svg">
<path d="M9.17939 10.1837C9.60186 10.1837 9.94434 9.84124 9.94434 9.41877C9.94434 8.99629 9.60186 8.65381 9.17939 8.65381C8.75691 8.65381 8.41443 8.99629 8.41443 9.41877C8.41443 9.84124 8.75691 10.1837 9.17939 10.1837Z" fill="#C4C4C4" stroke="#C4C4C4" stroke-linecap="round" stroke-linejoin="round"/>
<path d="M9.17939 4.82899C9.60186 4.82899 9.94434 4.4865 9.94434 4.06403C9.94434 3.64156 9.60186 3.29907 9.17939 3.29907C8.75691 3.29907 8.41443 3.64156 8.41443 4.06403C8.41443 4.4865 8.75691 4.82899 9.17939 4.82899Z" fill="#C4C4C4" stroke="#C4C4C4" stroke-linecap="round" stroke-linejoin="round"/>
<path d="M9.17939 15.5384C9.60186 15.5384 9.94434 15.1959 9.94434 14.7734C9.94434 14.351 9.60186 14.0085 9.17939 14.0085C8.75691 14.0085 8.41443 14.351 8.41443 14.7734C8.41443 15.1959 8.75691 15.5384 9.17939 15.5384Z" fill="#C4C4C4" stroke="#C4C4C4" stroke-linecap="round" stroke-linejoin="round"/>
</svg>
